<?xml version="1.0" encoding="UTF-8" standalone="no"?>
<svg
   xmlns:dc="http://purl.org/dc/elements/1.1/"
   xmlns:cc="http://creativecommons.org/ns#"
   xmlns:rdf="http://www.w3.org/1999/02/22-rdf-syntax-ns#"
   xmlns:svg="http://www.w3.org/2000/svg"
   xmlns="http://www.w3.org/2000/svg"
   xmlns:sodipodi="http://sodipodi.sourceforge.net/DTD/sodipodi-0.dtd"
   xmlns:inkscape="http://www.inkscape.org/namespaces/inkscape"
   version="1.0"
   width="582px"
   height="419px"
   viewBox="0 0 5820 4190"
   preserveAspectRatio="xMidYMid meet"
   id="svg15"
   sodipodi:docname="pool.svg"
   inkscape:version="0.92.0 r">
  <metadata
     id="metadata21">
    <rdf:RDF>
      <cc:Work
         rdf:about="">
        <dc:format>image/svg+xml</dc:format>
        <dc:type
           rdf:resource="http://purl.org/dc/dcmitype/StillImage" />
      </cc:Work>
    </rdf:RDF>
  </metadata>
  <defs
     id="defs19" />
  <sodipodi:namedview
     pagecolor="#ffffff"
     bordercolor="#666666"
     borderopacity="1"
     objecttolerance="10"
     gridtolerance="10"
     guidetolerance="10"
     inkscape:pageopacity="0"
     inkscape:pageshadow="2"
     inkscape:window-width="716"
     inkscape:window-height="480"
     id="namedview17"
     showgrid="false"
     inkscape:zoom="0.52233677"
     inkscape:cx="291"
     inkscape:cy="209.5"
     inkscape:window-x="0"
     inkscape:window-y="0"
     inkscape:window-maximized="0"
     inkscape:current-layer="svg15" />
  <g
     id="layer1"
     fill="#000000"
     stroke="none"
     style="fill:#f9f9f9">
    <path
       d="M2155 4091 c-26 -5 -31 -12 -36 -48 -6 -49 -18 -66 -66 -88 -33 -16 -37 -16 -74 1 -39 17 -40 17 -65 -7 -26 -24 -54 -70 -54 -87 0 -5 9 -19 20 -32 42 -48 16 -140 -45 -160 -32 -11 -35 -15 -35 -50 0 -20 3 -52 6 -69 5 -26 11 -31 35 -31 85 0 132 -79 98 -166 -9 -26 -7 -31 28 -61 55 -47 70 -50 104 -17 39 37 96 39 133 5 14 -14 26 -32 26 -41 0 -9 6 -25 14 -35 12 -17 20 -18 72 -9 59 9 59 9 69 50 6 23 19 51 29 63 27 30 87 47 114 32 38 -20 56 -12 91 39 l34 50 -27 38 c-30 44 -32 59 -11 108 11 26 25 40 56 52 l41 16 -7 45 c-12 86 -15 91 -47 91 -40 0 -62 14 -87 54 -25 39 -26 67 -7 105 14 26 13 28 -31 64 -52 42 -72 46 -98 17 -39 -43 -151 -8 -165 50 -5 21 -12 25 -45 27 -22 0 -53 -2 -70 -6z m235 -225 c50 -33 96 -96 111 -150 37 -136 -61 -284 -204 -310 -94 -17 -214 41 -259 127 -29 54 -32 185 -6 233 24 44 77 93 123 116 61 29 179 21 235 -16z"
       id="path2"
       style="fill:#f9f9f9" />
    <path
       d="M1287 3953 c-2 -5 -10 -25 -16 -45 -16 -48 -63 -78 -123 -78 -32 0 -50 6 -63 20 -31 34 -52 34 -98 -2 -74 -58 -77 -65 -55 -115 16 -36 17 -49 8 -84 -17 -61 -58 -99 -108 -99 -48 0 -52 -8 -52 -101 0 -67 1 -70 28 -79 44 -16 56 -25 80 -60 30 -45 29 -100 -3 -138 -14 -17 -25 -37 -25 -45 0 -8 18 -37 41 -66 43 -54 68 -63 103 -36 24 18 92 19 126 2 31 -15 60 -71 60 -114 0 -34 2 -35 106 -48 56 -7 64 -2 83 55 22 70 135 100 195 53 16 -13 34 -23 41 -23 20 0 115 90 115 108 0 10 -7 26 -15 36 -47 63 20 186 102 186 42 0 55 28 51 113 l-3 60 -43 15 c-55 18 -82 59 -82 124 0 35 6 54 26 77 l25 31 -46 60 c-48 63 -79 76 -105 45 -39 -47 -180 26 -180 94 0 48 -22 61 -100 61 -38 0 -71 -3 -73 -7z m149 -254 c73 -27 125 -75 160 -147 24 -48 29 -69 29 -132 0 -62 -5 -85 -29 -133 -49 -99 -139 -157 -254 -165 -66 -4 -78 -2 -137 27 -67 33 -120 85 -152 150 -25 50 -25 192 0 242 74 149 232 214 383 158z"
       id="path4"
       style="fill:#f9f9f9" />
    <path
       d="M4221 3525 c-41 -8 -105 -21 -142 -30 -76 -19 -79 -24 -79 -134 0 -70 -35 -145 -88 -192 -46 -41 -132 -79 -194 -86 -43 -5 -57 -1 -143 42 l-95 48 -31 -29 c-47 -44 -141 -171 -183 -246 l-37 -67 61 -63 c34 -35 66 -74 72 -88 14 -35 13 -160 -2 -206 -29 -91 -111 -184 -160 -184 -39 0 -112 -33 -122 -55 -13 -28 6 -215 31 -315 19 -78 37 -90 131 -90 91 0 129 -13 179 -62 63 -62 102 -151 103 -231 0 -55 -5 -74 -36 -132 -20 -37 -36 -78 -36 -90 0 -15 18 -38 53 -67 79 -67 167 -132 214 -158 37 -20 45 -21 72 -11 16 7 50 35 75 62 58 63 113 88 192 89 122 0 229 -67 254 -160 21 -77 41 -129 59 -152 l18 -22 134 17 c182 23 230 36 246 67 7 14 13 54 13 90 0 41 7 80 19 105 37 82 165 166 275 181 34 5 57 0 114 -25 110 -49 121 -49 163 -4 47 49 131 161 165 218 33 57 28 80 -31 139 -24 25 -50 58 -58 73 -65 127 22 372 141 399 58 13 98 27 115 42 21 19 22 62 2 211 -18 135 -32 188 -54 196 -9 4 -57 10 -107 14 -124 11 -169 44 -237 175 -25 50 -31 73 -32 127 0 56 4 71 28 107 16 22 31 58 34 80 5 40 5 40 -85 115 -113 94 -207 150 -238 143 -12 -3 -48 -30 -80 -58 l-57 -53 -111 0 c-95 1 -118 4 -158 24 -74 36 -124 90 -132 142 -4 24 -18 61 -32 82 -23 35 -27 37 -77 36 -28 0 -85 -7 -126 -14z m392 -615 c233 -75 424 -280 473 -509 16 -79 18 -225 3 -307 -46 -251 -267 -478 -524 -539 -70 -17 -260 -19 -324 -4 -124 28 -263 111 -358 212 -74 80 -122 163 -159 277 -23 72 -27 103 -27 200 -1 103 3 125 31 210 40 119 90 203 171 285 189 191 458 257 714 175z"
       id="path6"
       style="fill:#f9f9f9" />
    <path
       d="M2443 3263 c-18 -3 -23 -11 -23 -37 0 -58 -69 -104 -114 -76 -18 11 -23 9 -48 -21 -33 -40 -34 -53 -8 -86 11 -14 20 -34 20 -45 0 -33 -29 -77 -55 -84 -29 -7 -28 -3 -14 -60 6 -24 16 -45 23 -45 6 -1 16 -2 21 -4 6 -1 18 -3 27 -3 9 -1 26 -18 39 -38 19 -32 21 -41 11 -67 -13 -35 -7 -46 42 -72 l34 -18 32 26 c17 15 38 27 45 27 29 0 64 -24 76 -51 9 -22 18 -29 40 -29 53 0 79 17 79 50 0 53 65 94 115 72 21 -10 26 -7 49 28 31 47 32 52 6 75 -12 11 -20 31 -20 50 0 35 33 85 56 85 15 0 18 28 8 79 -6 27 -11 31 -39 31 -50 0 -89 50 -81 104 6 38 4 43 -27 64 -41 27 -41 27 -77 1 -40 -30 -95 -20 -118 22 -17 29 -38 34 -99 22z m170 -150 c43 -9 104 -73 118 -125 25 -93 -17 -193 -94 -229 -47 -21 -121 -25 -164 -8 -64 24 -122 109 -123 179 0 47 41 132 76 157 36 25 101 43 133 37 13 -3 37 -8 54 -11z"
       id="path8"
       style="fill:#f9f9f9" />
    <path
       d="M985 2975 c-102 -19 -122 -29 -130 -64 -3 -17 -4 -35 0 -41 21 -33 -44 -133 -106 -166 -41 -21 -118 -18 -154 6 -16 11 -38 20 -47 20 -21 0 -85 -83 -122 -158 l-27 -53 45 -43 c52 -51 64 -93 47 -164 -16 -62 -49 -109 -86 -122 -94 -34 -96 -41 -64 -181 22 -97 22 -99 55 -105 18 -3 42 -3 53 1 12 3 39 -2 65 -14 49 -21 87 -70 104 -135 12 -40 10 -48 -20 -114 -11 -23 -18 -48 -15 -56 6 -14 118 -96 168 -121 34 -18 57 -10 83 29 27 43 91 69 153 64 82 -7 110 -34 162 -157 15 -37 9 -36 167 -10 85 15 88 18 90 92 1 75 19 107 85 153 35 24 52 29 98 28 31 0 75 -7 98 -14 40 -13 43 -13 62 11 12 13 42 56 67 96 50 79 50 85 -5 138 -55 51 -62 133 -20 217 20 39 46 61 89 73 47 14 62 35 55 80 -11 77 -37 174 -48 183 -7 5 -39 12 -73 14 -76 5 -113 30 -148 100 -30 59 -33 106 -10 149 8 17 14 40 12 52 -3 24 -123 120 -171 136 -25 9 -33 6 -70 -28 -48 -44 -87 -56 -157 -46 -69 9 -110 40 -144 108 -32 64 -29 63 -141 42z m258 -361 c83 -21 125 -44 191 -104 68 -63 123 -167 136 -259 25 -179 -74 -365 -240 -449 -148 -74 -300 -63 -443 32 -230 153 -250 500 -39 687 57 50 90 68 167 90 76 22 151 23 228 3z"
       id="path10"
       style="fill:#f9f9f9" />
    <path
       d="M2633 2172 c-9 -9 -24 -35 -34 -57 -34 -76 -103 -110 -224 -110 -92 0 -122 14 -170 78 -47 62 -55 65 -124 35 -33 -15 -94 -47 -136 -73 -71 -45 -75 -49 -75 -84 1 -20 7 -47 15 -61 43 -75 -10 -214 -103 -272 -33 -20 -50 -23 -142 -23 l-105 0 -31 -90 c-18 -49 -38 -119 -44 -154 l-13 -65 29 -22 c16 -13 40 -26 55 -29 14 -3 38 -18 51 -33 46 -49 62 -92 62 -172 1 -93 -19 -135 -89 -188 -34 -25 -51 -46 -53 -64 -3 -26 57 -152 113 -236 30 -46 38 -47 138 -15 75 23 148 3 215 -61 66 -61 82 -116 68 -221 -4 -27 -3 -56 2 -63 12 -18 180 -80 246 -90 50 -8 57 -7 75 12 10 12 26 39 36 61 21 52 80 112 124 126 50 17 142 14 178 -4 17 -9 43 -32 59 -52 16 -20 43 -52 61 -71 l31 -34 53 20 c74 29 220 112 227 128 2 8 -3 40 -12 73 -30 109 -20 159 51 246 51 62 111 87 190 78 34 -4 71 -4 82 0 41 13 122 288 93 317 -7 7 -38 27 -69 43 -75 39 -106 96 -111 202 -5 92 18 145 83 191 25 18 48 39 52 47 8 22 -30 115 -84 207 -53 88 -60 91 -159 62 -49 -14 -59 -14 -107 0 -64 19 -139 80 -168 139 -18 34 -20 50 -14 118 8 92 10 90 -130 137 -117 39 -170 45 -192 24z m7 -458 c113 -34 182 -74 261 -154 221 -223 228 -557 15 -786 -219 -237 -577 -247 -812 -23 -236 227 -232 602 11 826 77 72 109 91 217 127 89 31 224 35 308 10z"
       id="path12"
       style="fill:#f9f9f9" />
  </g>
</svg>
