<?xml version="1.0" encoding="UTF-8" standalone="no"?>
<svg width="77px" height="50px" viewBox="0 0 77 50" version="1.1" xmlns="http://www.w3.org/2000/svg" xmlns:xlink="http://www.w3.org/1999/xlink">
    <!-- Generator: Sketch 42 (36781) - http://www.bohemiancoding.com/sketch -->
    <title>text-quotes-</title>
    <desc>Created with Sketch.</desc>
    <defs></defs>
    <g id="Page-1" stroke="none" stroke-width="1" fill="none" fill-rule="evenodd">
        <g id="index" transform="translate(-682.000000, -856.000000)" fill-rule="nonzero" fill="#E5E5E5">
            <g id="whatis" transform="translate(0.000000, 430.000000)">
                <g id="Group-11" transform="translate(413.000000, 307.000000)">
                    <g id="Group-9" transform="translate(77.000000, 119.000000)">
                        <g id="text-quotes-" transform="translate(230.500000, 25.000000) scale(-1, -1) translate(-230.500000, -25.000000) translate(192.000000, 0.000000)">
                            <g id="Capa_1">
                                <g id="Group">
                                    <path d="M59.3546809,0.44 C49.5665106,0.44 41.8378723,8.41 41.8378723,18.24 C41.8378723,28.07 49.8768511,36.04 59.6650213,36.04 C59.7629362,36.04 59.9106383,36.0266667 60.0085532,36.025 C56.1384255,39.12 51.2775319,40.985 45.9569362,40.985 C43.5090638,40.985 41.5391489,42.9783333 41.5391489,45.435 C41.5391489,47.8916667 43.1140851,49.885 45.5619574,49.885 C62.9360426,49.8833333 76.6640426,35.6883333 76.6640426,18.24 L76.6640426,18.2283333 C76.6640426,8.40333333 69.1395319,0.44 59.3546809,0.44 Z" id="Shape"></path>
                                    <path d="M17.8404255,0.44 C8.05225532,0.44 0.310340426,8.41 0.310340426,18.24 C0.310340426,28.07 8.34268085,36.04 18.1325106,36.04 C18.2304255,36.04 18.3748085,36.0266667 18.4727234,36.025 C14.6025957,39.12 9.74004255,40.985 4.41944681,40.985 C1.97157447,40.985 0,42.9783333 0,45.435 C0,47.8916667 1.59982979,49.885 4.04770213,49.885 C21.4217872,49.8833333 35.1746809,35.6883333 35.1746809,18.24 L35.1746809,18.2283333 C35.1746809,8.40333333 27.6252766,0.44 17.8404255,0.44 Z" id="Shape"></path>
                                </g>
                            </g>
                        </g>
                    </g>
                </g>
            </g>
        </g>
    </g>
</svg>